# xmcd CD database file
#
# Track frame offsets:
#	150
#	28370
#	61925
#	75712
#	101037
#	115897
#
# Disc length: 1906 seconds
#
# Revision: 0
# Processed by: cddbd v1.5.1PL0 Copyright (c) Steve Scherf et al.
# Submitted via: CDex 1.51
#
DISCID=4b077006
DTITLE=平沢進 - GLORY WARS
DYEAR=1993
DGENRE=Anime
TTITLE0=Glory
TTITLE1=Luke
TTITLE2=War Manual of "GEAR"
TTITLE3=Viles Imperial
TTITLE4=Rulilian
TTITLE5=After The Wars
EXTD=YEAR: 1993
EXTT0=
EXTT1=
EXTT2=
EXTT3=
EXTT4=
EXTT5=
PLAYORDER=
